/* XPM */
static char *b3f576d5e0c7464d9003551e59dce21benuBEU7xaV806x0u[] = {
/* columns rows colors chars-per-pixel */
"64 64 102 2 ",
"   c #3E3F3E",
".  c #7D7F7D",
"X  c #E7191F",
"o  c #E71B21",
"O  c #E71C22",
"+  c #E71F25",
"@  c #E72026",
"#  c #E72228",
"$  c #E72429",
"%  c #E82429",
"&  c #E8262C",
"*  c #E8292E",
"=  c #E82A30",
"-  c #E82D32",
";  c #E93136",
":  c #E93338",
">  c #E9353A",
",  c #E9373C",
"<  c #E93A3F",
"1  c #EA3C41",
"2  c #EA3F44",
"3  c #EA4347",
"4  c #EB464A",
"5  c #EB4A4E",
"6  c #EB4C50",
"7  c #EC4F53",
"8  c #EB5054",
"9  c #EC5357",
"0  c #EC5458",
"q  c #EC5A5D",
"w  c #EC5C5F",
"e  c #ED5E61",
"r  c #ED6467",
"t  c #EE6669",
"y  c #EE686B",
"u  c #EE696C",
"i  c #EE6C6F",
"p  c #EE6E71",
"a  c #EF7274",
"s  c #EF7477",
"d  c #EF7578",
"f  c #EF787B",
"g  c #EF797C",
"h  c #EF7C7F",
"j  c #F07D7F",
"k  c #F07E80",
"l  c #F08082",
"z  c #F08587",
"x  c #F08688",
"c  c #F1898B",
"v  c #F18C8E",
"b  c #F18F91",
"n  c #F19092",
"m  c #F29394",
"M  c #F29496",
"N  c #F29798",
"B  c #F29B9D",
"V  c #F39D9E",
"C  c #F3A1A2",
"Z  c #F3A3A4",
"A  c #F3A4A5",
"S  c #F4A5A6",
"D  c #F3A7A8",
"F  c #F4A7A8",
"G  c #F4A8A9",
"H  c #F4ABAC",
"J  c #F4ADAE",
"K  c #F5B2B2",
"L  c #F5B3B4",
"P  c #F5B4B5",
"I  c #F5B7B8",
"U  c #F5B9B9",
"Y  c #F6BCBC",
"T  c #F6C0C0",
"R  c #F6C6C6",
"E  c #F6C8C8",
"W  c #F7CECE",
"Q  c #F7D0CF",
"!  c #F7D2D2",
"~  c #F8D3D2",
"^  c #F8D4D3",
"/  c #F8D6D6",
"(  c #F8D8D7",
")  c #F8DAD9",
"_  c #F8DCDB",
"`  c #F9DFDE",
"'  c #F9E0DF",
"]  c #F9E1E0",
"[  c #F9E5E3",
"{  c #F9E5E4",
"}  c #F9E9E7",
"|  c #FAEBEA",
" . c #FAEDEB",
".. c #FAEFED",
"X. c #FAF1EF",
"o. c #FBF2F1",
"O. c #FBF5F3",
"+. c #FBF6F5",
"@. c #FBF8F6",
"#. c #FBFBF9",
"$. c #FBFDFB",
"%. c #FCFEFC",
/* pixels */
"  . . . . . . . . . . . . . . . . . . . . . . . . . . . . . . . . . . . . . . . . . . . . . . . . . . . . . . . . . . . . . .   ",
". %.%.%.%.%.%.%.%.%.%.%.%.%.%.%.%.%.%.%.%.%.%.%.%.%.%.%.%.%.%.%.%.%.%.%.%.%.%.%.%.%.%.%.%.%.%.%.%.%.%.%.%.%.%.%.%.%.%.%.%.%.%.. ",
". %.%.%.%.%.%.%.%.%.%.%.%.%.%.%.%.%.%.%.%.%.%.%.%.%.%.%.%.%.%.%.%.%.%.%.%.%.%.%.%.%.%.%.%.%.%.%.%.%.%.%.%.%.%.%.%.%.%.%.%.%.%.. ",
". %.%.%.%.%.%.%.%.%.%.%.%.%.%.%.%.%.%.%.%.%.%.%.%.%.%.%.%.%.%.%.%.%.%.%.%.%.%.%.%.%.%.%.%.%.%.%.%.%.%.%.%.%.%.%.%.%.%.%.%.%.%.. ",
". %.%.%.%.%.%.%.%.%.%.%.%.%.%.%.%.%.%.%.%.%.%.%.%.%.%.%.%.%.%.%.%.%.%.%.%.%.%.%.%.%.%.%.%.%.%.%.%.%.%.%.%.%.%.%.%.%.%.%.%.%.%.. ",
". %.%.%.%.%.%.%.%.%.%.%.%.%.%.%.%.%.%.%.%.%.%.%.%.%.%.%.%.%.%.%.%.%.%.%.%.%.%.%.%.%.%.%.%.%.%.%.%.%.%.%.%.%.%.%.%.%.%.%.%.%.%.. ",
". %.%.%.%.%.%.%.%.%.%.%.%.%.%.%.%.%.%.%.%.../ E Q ` +.%.%.%.%.%.%.%.%.%.%.%.%.%.%.%.%.%.%.%.%.%.%.%.%.%.%.%.%.%.%.%.%.%.%.%.%.. ",
". %.%.%.%.%.%.%.%.%.%.%.%.%.%.%.%.%.) v 3 X X X X X X - 5 y b U ] %.%.%.%.%.%.%.%.%.%.%.%.%.%.%.%.%.%.%.%.%.%.%.%.%.%.%.%.%.%.. ",
". %.%.%.%.%.%.%.%.%.%.%.%.%.%.$.U 9 X X X X X X X X X X X X X X X * w M ~ $.%.%.%.%.%.%.%.%.%.%.%.%.%.%.%.%.%.%.%.%.%.%.%.%.%.. ",
". %.%.%.%.%.%.%.%.%.%.%.%.%./ 6 X X X X X X X X X X X X X X X X X X X X X ; g R $.%.%.%.%.%.%.%.%.%.%.%.%.%.%.%.%.%.%.%.%.%.%.. ",
". %.%.%.%.%.%.%.%.%.%.%.%.G @ X X X X X X X X X X X X X X X X X X X X X X X X X > z / %.%.%.%.%.%.%.%.%.%.%.%.%.%.%.%.%.%.%.%.. ",
". %.%.%.%.%.%.%.%.%.%.%.n X X X X X X X X X X X X X X X X X X X X X X X X X X X X X X 3 v ! %.%.%.%.%.%.%.%.%.%.%.%.%.%.%.%.%.. ",
". %.%.%.%.%.%.%.%.%.%.C X X X X X X X X X X X X X X X X X X X X X X X X X X X X X X X X X X > z ! %.%.%.%.%.%.%.%.%.%.%.%.%.%.. ",
". %.%.%.%.%.%.%.%.%.R O X X X X X X X X X X X X X X X X X X X X X X X X X X X X X X X X X X X X X 6 U %.%.%.%.%.%.%.%.%.%.%.%.. ",
". %.%.%.%.%.%.%.%. .; X X X X X X X X X X X X X X X X X X X X X X X X X X X X X X X X X X X X X X X X 0 ' %.%.%.%.%.%.%.%.%.%.. ",
". %.%.%.%.%.%.%.%.p X X X X X X X X X X X X X X X X X X X X X X X X X X X X X X X X X X X X X X X X X X & P %.%.%.%.%.%.%.%.%.. ",
". %.%.%.%.%.%.%.E X X X X X X X X X X X X X X X X X X X X X X X X X X X X X X X X X X X X X X X X X X X X o C %.%.%.%.%.%.%.%.. ",
". %.%.%.%.%.%.%.e X X X X X X X X X X X X X X X O @ X X X X X X X X X X X X X X X X X X X X X X X X X X X X o J %.%.%.%.%.%.%.. ",
". %.%.%.%.%.%.{ o X X X X X X X X X X X X X q E #.%...E D l 6 O X X X X X X X X X X X X X X X X X X X X X X X @ ! %.%.%.%.%.%.. ",
". %.%.%.%.%.%.B X X X X X X X X X X X X + F %.%.%.%.%.%.%.%.%.X.P p * X X X X X X X X X X X X X X X X X X X X X 1 @.%.%.%.%.%.. ",
". %.%.%.%.%.%.r X X X X X X X X X X X X I %.%.%.%.%.%.%.%.%.%.%.%.%.#.R k , X X X X X X X X X X X X X X X X X X X N %.%.%.%.%.. ",
". %.%.%.%.%.%.5 X X X X X X X X X X X o } %.%.%.%.%.%.%.%.%.%.%.%.%.%.%.%.%.) V 0 o X X X X X X X X X X X X X X X = +.%.%.%.%.. ",
". %.%.%.%.%.%.4 X X X X X X X X X X X X E %.%.%.%.%.%.%.%.%.%.%.%.%.%.%.%.%.%.%.%.{ x * X X X X X X X X X X X X X X Z %.%.%.%.. ",
". %.%.%.%.%.%.3 X X X X X X X X X X X X ` %.%.%.%.%.%.%.%.%.%.%.%.%.%.%.%.%.%.%.%.%.%.X.n * X X X X X X X X X X X X 6 %.%.%.%.. ",
". %.%.%.%.%.%.= X X X X X X X X X X X < $.%.%.%.%.%.%.%.%.%.%.%.%.%.%.%.%.%.%.%.%.%.%.%.%...s X X X X X X X X X X X o { %.%.%.. ",
". %.%.%.%.%.%.1 X X X X X X X X X X X J %.%.%.%.%.%.%.%.%.%.%.%.%.%.%.%.%.%.%.%.%.%.%.%.%.%.%.m X X X X X X X X X X X G %.%.%.. ",
". %.%.%.%.%.) X X X X X X X X X X X 7 $.%.%.%.%.%.%.%.%.%.%.%.%.%.%.%.%.%.%.%.%.%.%.%.%.%.%.%.%.e X X X X X X X X X X f %.%.%.. ",
". %.%.%.%.%.f X X X X X X X X X X O ( %.%.%.%.%.%.%.%.%.%.%.%.%.%.%.%.%.%.%.%.%.%.%.%.%.%.%.%.%.K X X X X X X X X X X 0 %.%.%.. ",
". %.%.%.%.o.% X X X X X X X X X X k %.%.%.%.%.%.%.%.%.%.%.%.%.%.%.%.%.%.%.%.%.%.%.%.%.%.%.%.%.%.` X X X X X X X X X X 2 %.%.%.. ",
". %.%.%.%.A X X X X X X X X X X * X.%.%.%.%.%.%.%.%.%.%.%.%.%.%.%.%.%.%.%.%.%.%.%.%.%.%.%.%.%.%.o.X X X X X X X X X X , %.%.%.. ",
". %.%.%.%.8 X X X X X X X X X X c %.%.%.%.%.%.%.%.%.%.%.%.%.%.%.%.%.%.%.%.%.%.%.%.%.%.%.%.%.%.%.+.X X X X X X X X X X < %.%.%.. ",
". %.%.%.| O X X X X X X X X X o ] %.%.%.%.%.%.%.%.%.%.%.%.%.%.%.%.%.%.%.%.%.%.%.%.%.%.%.%.%.%.%...X X X X X X X X X X 4 %.%.%.. ",
". %.%.%.H X X X X X X X X X X 5 %.%.%.%.%.%.%.%.%.%.%.%.%.%.%.%.%.%.%.%.%.%.%.%.%.%.%.%.%.%.%.%.) X X X X X X X X X X e %.%.%.. ",
". %.%.%.d X X X X X X X X X X m %.%.%.%.%.%.%.%.%.%.%.%.%.%.%.%.%.%.%.%.%.%.%.%.%.%.%.%.%.%.%.%.J X X X X X X X X X X k %.%.%.. ",
". %.%.%.5 X X X X X X X X X X / %.%.%.%.%.%.%.%.%.%.%.%.%.%.%.%.%.%.%.%.%.%.%.%.%.%.%.%.%.%.%.%.a X X X X X X X X X X A %.%.%.. ",
". %.%.%.& X X X X X X X X X : %.%.%.%.%.%.%.%.%.%.%.%.%.%.%.%.%.%.%.%.%.%.%.%.%.%.%.%.%.%.%.%.+.& X X X X X X X X X X / %.%.%.. ",
". %.%...X X X X X X X X X X a %.%.%.%.%.%.%.%.%.%.%.%.%.%.%.%.%.%.%.%.%.%.%.%.%.%.%.%.%.%.%.%.C X X X X X X X X X X * $.%.%.%.. ",
". %.%.^ X X X X X X X X X X J %.%.%.%.%.%.%.%.%.%.%.%.%.%.%.%.%.%.%.%.%.%.%.%.%.%.%.%.%.%.%.@.> X X X X X X X X X X i %.%.%.%.. ",
". %.%.Y X X X X X X X X X X } %.%.%.%.%.%.%.%.%.%.%.%.%.%.%.%.%.%.%.%.%.%.%.%.%.%.%.%.%.%.%.V X X X X X X X X X X X Y %.%.%.%.. ",
". %.%.S X X X X X X X X X X ) %.%.%.%.%.%.%.%.%.%.%.%.%.%.%.%.%.%.%.%.%.%.%.%.%.%.%.%.%.%...= X X X X X X X X X X : #.%.%.%.%.. ",
". %.%.b X X X X X X X X X X m %.%.%.%.%.%.%.%.%.%.%.%.%.%.%.%.%.%.%.%.%.%.%.%.%.%.%.%.%.%.g X X X X X X X X X X X m %.%.%.%.%.. ",
". %.%.k X X X X X X X X X X 1 %.%.%.%.%.%.%.%.%.%.%.%.%.%.%.%.%.%.%.%.%.%.%.%.%.%.%.%.%.E o X X X X X X X X X X % ..%.%.%.%.%.. ",
". %.%.j X X X X X X X X X X X Y %.%.%.%.%.%.%.%.%.%.%.%.%.%.%.%.%.%.%.%.%.%.%.%.%.%.%.X.> X X X X X X X X X X X x %.%.%.%.%.%.. ",
". %.%.G X X X X X X X X X X X 4 #.%.%.%.%.%.%.%.%.%.%.%.%.%.%.%.%.%.%.%.%.%.%.%.%.%.#.q X X X X X X X X X X X %  .%.%.%.%.%.%.. ",
". %.%.` X X X X X X X X X X X X x %.%.%.%.%.%.%.%.%.%.%.%.%.%.%.%.%.%.%.%.%.%.%.%.@.r X X X X X X X X X X X X v %.%.%.%.%.%.%.. ",
". %.%.%.> X X X X X X X X X X X X C %.%.%.%.%.%.%.%.%.%.%.%.%.%.%.%.%.%.%.%.%.%.) 4 X X X X X X X X X X X X > O.%.%.%.%.%.%.%.. ",
". %.%.%.s X X X X X X X X X X X X X a | %.%.%.%.%.%.%.%.%.%.%.%.%.%.%.%.%.%.{ h + X X X X X X X X X X X X X L %.%.%.%.%.%.%.%.. ",
". %.%.%.Y X X X X X X X X X X X X X X # t K } %.%.%.%.%.%.%.%.%.%.%.%.o.P y O X X X X X X X X X X X X X X e %.%.%.%.%.%.%.%.%.. ",
". %.%.%.@.* X X X X X X X X X X X X X X X X X * 3 4 4 4 4 6 9 q 0 5 < o X X X X X X X X X X X X X X X X = } %.%.%.%.%.%.%.%.%.. ",
". %.%.%.%.h X X X X X X X X X X X X X X X X X X X X X X X X X X X X X X X X X X X X X X X X X X X X X O T %.%.%.%.%.%.%.%.%.%.. ",
". %.%.%.%.] + X X X X X X X X X X X X X X X X X X X X X X X X X X X X X X X X X X X X X X X X X X X X V %.%.%.%.%.%.%.%.%.%.%.. ",
". %.%.%.%.%.n X X X X X X X X X X X X X X X X X X X X X X X X X X X X X X X X X X X X X X X X X X X b %.%.%.%.%.%.%.%.%.%.%.%.. ",
". %.%.%.%.%.$.p X X X X X X X X X X X X X X X X X X X X X X X X X X X X X X X X X X X X X X X X o B %.%.%.%.%.%.%.%.%.%.%.%.%.. ",
". %.%.%.%.%.%.$.g X X X X X X X X X X X X X X X X X X X X X X X X X X X X X X X X X X X X X X & P %.%.%.%.%.%.%.%.%.%.%.%.%.%.. ",
". %.%.%.%.%.%.%.%.G % X X X X X X X X X X X X X X X X X X X X X X X X X X X X X X X X X X X 0 ' %.%.%.%.%.%.%.%.%.%.%.%.%.%.%.. ",
". %.%.%.%.%.%.%.%.%.[ t X X X X X X X X X X X X X X X X X X X X X X X X X X X X X X X X = A $.%.%.%.%.%.%.%.%.%.%.%.%.%.%.%.%.. ",
". %.%.%.%.%.%.%.%.%.%.%.R 0 X X X X X X X X X X X X X X X X X X X X X X X X X X X X - n o.%.%.%.%.%.%.%.%.%.%.%.%.%.%.%.%.%.%.. ",
". %.%.%.%.%.%.%.%.%.%.%.%.%._ b 5 O X X X X X X X X X X X X X X X X X X X X X O 0 H +.%.%.%.%.%.%.%.%.%.%.%.%.%.%.%.%.%.%.%.%.. ",
". %.%.%.%.%.%.%.%.%.%.%.%.%.%.%.%.O.W G v f p e 6 4 1 : = $ O O & ; < 5 u x K  .%.%.%.%.%.%.%.%.%.%.%.%.%.%.%.%.%.%.%.%.%.%.%.. ",
". %.%.%.%.%.%.%.%.%.%.%.%.%.%.%.%.%.%.%.%.%.%.%.%.%.%.%.%.%.%.%.%.%.%.%.%.%.%.%.%.%.%.%.%.%.%.%.%.%.%.%.%.%.%.%.%.%.%.%.%.%.%.. ",
". %.%.%.%.%.%.%.%.%.%.%.%.%.%.%.%.%.%.%.%.%.%.%.%.%.%.%.%.%.%.%.%.%.%.%.%.%.%.%.%.%.%.%.%.%.%.%.%.%.%.%.%.%.%.%.%.%.%.%.%.%.%.. ",
". %.%.%.%.%.%.%.%.%.%.%.%.%.%.%.%.%.%.%.%.%.%.%.%.%.%.%.%.%.%.%.%.%.%.%.%.%.%.%.%.%.%.%.%.%.%.%.%.%.%.%.%.%.%.%.%.%.%.%.%.%.%.. ",
". %.%.%.%.%.%.%.%.%.%.%.%.%.%.%.%.%.%.%.%.%.%.%.%.%.%.%.%.%.%.%.%.%.%.%.%.%.%.%.%.%.%.%.%.%.%.%.%.%.%.%.%.%.%.%.%.%.%.%.%.%.%.. ",
"  . . . . . . . . . . . . . . . . . . . . . . . . . . . . . . . . . . . . . . . . . . . . . . . . . . . . . . . . . . . . . .   "
};
